<svg width="39" height="39" viewBox="0 0 39 39" fill="none" xmlns="http://www.w3.org/2000/svg">
<path d="M9.75 14.625C11.0429 14.625 12.2829 14.1114 13.1971 13.1971C14.1114 12.2829 14.625 11.0429 14.625 9.75M9.75 14.625C8.45707 14.625 7.21709 14.1114 6.30285 13.1971C5.38861 12.2829 4.875 11.0429 4.875 9.75M9.75 14.625V19.5M14.625 9.75C14.625 8.45707 14.1114 7.21709 13.1971 6.30285C12.2829 5.38861 11.0429 4.875 9.75 4.875M14.625 9.75H19.5M9.75 4.875C8.45707 4.875 7.21709 5.38861 6.30285 6.30285C5.38861 7.21709 4.875 8.45707 4.875 9.75M9.75 4.875V0M4.875 9.75H0M3.25 3.25L6.5 6.5M13 13L16.25 16.25M16.25 3.25L13 6.5M6.5 13L3.25 16.25M29.25 19.5C30.5429 19.5 31.7829 18.9864 32.6971 18.0721C33.6114 17.1579 34.125 15.9179 34.125 14.625M29.25 19.5C27.9571 19.5 26.7171 18.9864 25.8029 18.0721C24.8886 17.1579 24.375 15.9179 24.375 14.625M29.25 19.5V24.375M34.125 14.625C34.125 13.3321 33.6114 12.0921 32.6971 11.1779C31.7829 10.2636 30.5429 9.75 29.25 9.75M34.125 14.625H39M29.25 9.75C27.9571 9.75 26.7171 10.2636 25.8029 11.1779C24.8886 12.0921 24.375 13.3321 24.375 14.625M29.25 9.75V4.875M24.375 14.625H19.5M22.75 8.125L26 11.375M32.5 17.875L35.75 21.125M35.75 8.125L32.5 11.375M26 17.875L22.75 21.125M14.625 34.125C15.9179 34.125 17.1579 33.6114 18.0721 32.6971C18.9864 31.7829 19.5 30.5429 19.5 29.25M14.625 34.125C13.3321 34.125 12.0921 33.6114 11.1779 32.6971C10.2636 31.7829 9.75 30.5429 9.75 29.25M14.625 34.125V39M19.5 29.25C19.5 27.9571 18.9864 26.7171 18.0721 25.8029C17.1579 24.8886 15.9179 24.375 14.625 24.375M19.5 29.25H24.375M14.625 24.375C13.3321 24.375 12.0921 24.8886 11.1779 25.8029C10.2636 26.7171 9.75 27.9571 9.75 29.25M14.625 24.375V19.5M9.75 29.25H4.875M8.125 22.75L11.375 26M17.875 32.5L21.125 35.75M21.125 22.75L17.875 26M11.375 32.5L8.125 35.75" stroke="white" stroke-width="2"/>
</svg>
